<svg xmlns="http://www.w3.org/2000/svg" width="60" height="60" viewBox="0 0 60 60" fill="none"><path fill-rule="evenodd" clip-rule="evenodd" d="M22.7933 37.2896C22.5092 32.4946 21.1415 30.6922 20.0968 28.844C19.328 27.4836 18.7166 26.1014 18.7166 23.7029C18.7166 17.7508 23.5415 12.9255 29.4931 12.9255C35.4447 12.9255 40.2695 17.7508 40.2695 23.7029C40.2695 26.1014 39.6581 27.4836 38.8893 28.844C37.8432 30.6946 36.4733 32.4994 36.1917 37.3086C36.1915 37.3126 36.1912 37.3165 36.1909 37.3205L36.1894 38.9153C36.1894 39.954 35.494 40.8359 34.5479 41.1203V42.2054C34.5479 43.2599 33.8281 44.1532 32.859 44.4231V45.4954C32.859 46.7579 31.8237 47.7966 30.5613 47.7966H28.4247C27.1627 47.7966 26.1237 46.7575 26.1237 45.4954V44.4226C25.1539 44.1522 24.4381 43.2592 24.4381 42.2054V41.1208C23.489 40.837 22.7933 39.9543 22.7933 38.9153V37.2896ZM34.8783 37.9263H24.1053V38.9153C24.1053 39.4597 24.5498 39.9043 25.0942 39.9043H33.8919C34.4339 39.9043 34.8774 39.4594 34.8774 38.915L34.8783 37.9263ZM33.2359 41.2165H25.7502V42.2054C25.7502 42.7498 26.1947 43.1943 26.7391 43.1943H32.247C32.7893 43.1943 33.2359 42.7498 33.2359 42.2054V41.2165ZM31.5469 44.5065H27.4358V45.4954C27.4358 46.0379 27.8823 46.4844 28.4247 46.4844H30.5613C31.1033 46.4844 31.5469 46.0375 31.5469 45.4954V44.5065ZM31.8957 36.6141H34.9248C35.2377 32.7334 36.2438 30.7907 37.1894 29.1591C38.0943 27.5978 38.9574 26.3556 38.9574 23.7029C38.9574 18.4754 34.72 14.2377 29.4931 14.2377C24.2661 14.2377 20.0287 18.4754 20.0287 23.7029C20.0287 26.3556 20.8918 27.5978 21.7966 29.1591C22.7422 30.7907 23.7484 32.7334 24.0613 36.6141H27.0903V26.7842H25.3927C23.7398 26.7842 22.3863 25.4305 22.3863 23.7775C22.3863 22.1204 23.74 20.7674 25.3927 20.7674C27.0493 20.7674 28.4024 22.1206 28.4024 23.7775V25.472H30.5837V23.7775C30.5837 22.1206 31.9367 20.7674 33.5934 20.7674C35.2461 20.7674 36.5998 22.1204 36.5998 23.7775C36.5998 25.4305 35.2463 26.7842 33.5934 26.7842H31.8957V36.6141ZM28.4024 36.6141H30.5837V26.7842H28.4024V36.6141ZM31.8957 25.472H33.5934C34.525 25.472 35.2877 24.7091 35.2877 23.7775C35.2877 22.8432 34.5252 22.0796 33.5934 22.0796C32.659 22.0796 31.8957 22.8429 31.8957 23.7775V25.472ZM27.0903 25.472V23.7775C27.0903 22.8429 26.3271 22.0796 25.3927 22.0796C24.4609 22.0796 23.6983 22.8432 23.6983 23.7775C23.6983 24.7091 24.4612 25.472 25.3927 25.472H27.0903ZM30.1491 10.1592C30.1491 10.5213 29.8551 10.8153 29.4931 10.8153C29.1309 10.8153 28.837 10.5213 28.837 10.1592V7.77475C28.837 7.41267 29.1309 7.11865 29.4931 7.11865C29.8551 7.11865 30.1491 7.41267 30.1491 7.77475V10.1592ZM22.427 11.8769C22.6078 12.1906 22.4999 12.5921 22.1863 12.773C21.8725 12.9537 21.4711 12.8459 21.2903 12.5321L20.0998 10.4665C19.919 10.1528 20.0269 9.75124 20.3406 9.5704C20.6543 9.38957 21.0558 9.49749 21.2366 9.81127L22.427 11.8769ZM16.6011 17.2262C16.9146 17.4075 17.0219 17.8091 16.8408 18.1226C16.6595 18.4361 16.2579 18.5435 15.9444 18.3623L13.879 17.1684C13.5655 16.9872 13.4581 16.5855 13.6393 16.272C13.8205 15.9585 14.2221 15.8511 14.5356 16.0323L16.6011 17.2262ZM37.692 12.5328C37.5109 12.8464 37.1092 12.9537 36.7958 12.7726C36.4823 12.5913 36.3749 12.1897 36.5561 11.8762L37.7499 9.81053C37.9311 9.497 38.3327 9.38965 38.6461 9.57081C38.9597 9.75206 39.0671 10.1537 38.8858 10.4672L37.692 12.5328ZM43.042 18.3621C42.7287 18.5435 42.327 18.4364 42.1455 18.123C41.9642 17.8096 42.0713 17.4079 42.3847 17.2265L44.4467 16.0325C44.76 15.8511 45.1618 15.9582 45.3432 16.2716C45.5246 16.585 45.4175 16.9867 45.1041 17.1682L43.042 18.3621ZM48.1072 28.2758C47.2182 27.2285 45.3762 25.0583 44.6893 24.249L41.2714 28.2758H42.4545C42.8168 28.2758 43.1105 28.5695 43.1105 28.9319V35.4946C43.1105 35.8568 42.8165 36.1507 42.4545 36.1507C42.0924 36.1507 41.7984 35.8568 41.7984 35.4946V29.588H40.5092C40.1225 29.588 39.7975 29.3787 39.6373 29.0292C39.4778 28.6837 39.5291 28.2959 39.7798 28.0055L43.957 23.0841C44.1424 22.8635 44.3938 22.7447 44.6893 22.7447C44.9767 22.7447 45.2281 22.8593 45.4176 23.0795C45.4187 23.0807 45.4197 23.0818 45.4207 23.083L49.6002 28.0071C49.8466 28.2966 49.8986 28.6842 49.7393 29.0292C49.5786 29.3799 49.2513 29.588 48.8694 29.588H47.5782V39.8033C47.5782 40.1654 47.2842 40.4594 46.9222 40.4594C46.56 40.4594 46.2661 40.1654 46.2661 39.8033V28.9319C46.2661 28.5695 46.5598 28.2758 46.9222 28.2758H48.1072ZM18.5989 34.5775L14.7204 30.008L10.842 34.5775H12.2749C12.6373 34.5775 12.9309 34.8712 12.9309 35.2336V47.1405C12.9309 47.5026 12.637 47.7966 12.2749 47.7966C11.9128 47.7966 11.6188 47.5026 11.6188 47.1405V35.8897H10.1422C9.74879 35.8897 9.41175 35.6753 9.24618 35.3141C9.08201 34.9587 9.13556 34.5595 9.38879 34.2619L13.967 28.8681C13.968 28.8668 13.969 28.8657 13.97 28.8646C14.1653 28.6377 14.4243 28.5194 14.7204 28.5194C15.0248 28.5194 15.2839 28.6419 15.4748 28.8691L20.05 34.2595C20.3084 34.559 20.3611 34.9583 20.1969 35.3141C20.0318 35.6741 19.6971 35.8897 19.2987 35.8897H17.8242V42.4215C17.8242 42.7836 17.5302 43.0776 17.1681 43.0776C16.8061 43.0776 16.5121 42.7836 16.5121 42.4215V35.2336C16.5121 34.8712 16.8058 34.5775 17.1681 34.5775H18.5989Z" fill="#AA5858"></path><circle cx="30" cy="30" r="29.5" stroke="#AA5858" stroke-opacity="0.8"></circle></svg>