<svg xmlns="http://www.w3.org/2000/svg" width="60" height="60" viewBox="0 0 60 60" fill="none"><path d="M11.1868 34.2033C10.9536 33.9708 10.5762 33.9714 10.3439 34.2045C10.1115 34.4375 10.112 34.8148 10.3451 35.0471L13.6481 38.3402C13.7644 38.4562 13.9167 38.5141 14.069 38.5141C14.2218 38.5141 14.3746 38.4557 14.491 38.339C14.7235 38.106 14.723 37.7287 14.4898 37.4964L11.1868 34.2033Z" fill="#AA5858"></path><path d="M49.8304 34.2037L42.3867 41.6454L33.1438 32.4049C33.0307 32.292 32.8738 32.2282 32.7176 32.2304C32.5578 32.2317 32.4053 32.297 32.2942 32.4116L29.2257 35.5783C28.7035 36.1422 27.6567 36.2246 27.0259 35.5957C26.4241 34.9942 26.4241 34.0153 27.0259 33.4138L30.0489 30.3915L38.4324 28.3846C38.5395 28.3591 38.6373 28.3042 38.7152 28.2265L42.3515 24.5912C42.5843 24.3584 42.5843 23.9811 42.3515 23.7484C42.1187 23.5158 41.7414 23.5158 41.5086 23.7484L37.9913 27.2649L30.5463 29.047L23.0262 27.2644L11.1874 15.4289C10.9546 15.1962 10.5773 15.1962 10.3445 15.4289C10.1117 15.6617 10.1117 16.0389 10.3445 16.2716L21.8812 27.8051L20.4969 29.1891C20.2641 29.4219 20.2641 29.7991 20.4969 30.0318C20.6133 30.1481 20.7659 30.2063 20.9184 30.2063C21.0709 30.2063 21.2235 30.1481 21.3399 30.0318L22.9104 28.4616L28.8782 29.8763L26.1829 32.5709C25.6663 33.0874 25.3818 33.7742 25.3818 34.5046C25.3818 35.2351 25.6663 35.9219 26.1829 36.4384C27.1692 37.4787 29.049 37.507 30.0819 36.4075L32.7292 33.6755L41.9654 42.9094C41.9656 42.9096 42.8884 43.8319 42.8884 43.8319C43.4746 44.4181 43.4747 45.3718 42.8884 45.9579C42.3021 46.5443 41.3481 46.5441 40.7618 45.9579L35.8662 41.0636C35.6333 40.831 35.256 40.831 35.0232 41.0636C34.7905 41.2964 34.7905 41.6736 35.0232 41.9063L41.0289 47.9103C41.6152 48.4965 41.6152 49.4502 41.0289 50.0363C40.4427 50.6227 39.4886 50.6226 38.9024 50.0363L32.8968 44.0323C32.6639 43.7997 32.2866 43.7997 32.0538 44.0323C31.821 44.2651 31.821 44.6423 32.0538 44.875L37.2303 50.0501C37.5143 50.334 37.6707 50.7116 37.6707 51.1131C37.6707 51.5147 37.5143 51.8922 37.2303 52.1761C36.9463 52.46 36.5688 52.6165 36.1671 52.6165C35.7654 52.6165 35.3878 52.46 35.1038 52.1761L29.9273 47.001C29.6945 46.7683 29.3172 46.7683 29.0844 47.001C28.8516 47.2337 28.8516 47.611 29.0844 47.8437L33.2224 51.9805C33.5982 52.5712 33.5158 53.3491 33.0168 53.8478C32.5577 54.3069 31.8811 54.4091 31.324 54.1504C31.5085 53.7817 31.6065 53.3727 31.6065 52.9474C31.6065 52.2276 31.3261 51.551 30.8169 51.0419C30.1614 50.3867 29.2411 50.1416 28.3882 50.3072C28.3883 50.295 28.3895 50.2829 28.3895 50.2708C28.3895 49.551 28.1091 48.8744 27.5997 48.3653C27.2012 47.9669 26.7079 47.7199 26.1917 47.6236C26.5753 47.1469 26.7843 46.5586 26.7843 45.938C26.7843 45.218 26.5038 44.5413 25.9947 44.0323C25.4855 43.5234 24.8085 43.2429 24.0885 43.2429C23.4678 43.2429 22.8794 43.4517 22.4027 43.8351C22.3064 43.3191 22.0593 42.826 21.661 42.4275C21.1518 41.9186 20.4748 41.6381 19.7547 41.6381C19.4282 41.6381 19.1107 41.6963 18.8134 41.8069L16.4728 39.4731C16.2396 39.2406 15.8622 39.2413 15.6299 39.4743C15.3975 39.7073 15.398 40.0846 15.6311 40.3169L17.7983 42.4777L17.2867 42.9892C16.2357 44.04 16.2357 45.7498 17.2867 46.8006C17.6925 47.2062 18.2049 47.466 18.7607 47.5551C18.1174 48.5941 18.2453 49.9784 19.1461 50.879V50.879C19.6717 51.4044 20.362 51.6671 21.0523 51.6671C21.4354 51.6671 21.8185 51.5859 22.1734 51.4241C22.2422 52.0263 22.5096 52.5838 22.9447 53.0184C23.4703 53.5438 24.1608 53.8065 24.8511 53.8065C25.2222 53.8065 25.5931 53.7299 25.9387 53.578C26.0123 54.154 26.2708 54.7076 26.7059 55.1427C27.2147 55.6519 27.8916 55.9324 28.6117 55.9324C29.33 55.9324 30.0055 55.6533 30.5143 55.1464L30.5659 55.0965C30.9929 55.3547 31.4731 55.4838 31.9533 55.4838C32.6429 55.4838 33.3319 55.2183 33.8597 54.6906C34.2493 54.3011 34.4976 53.8163 34.5981 53.3054C35.0526 53.6319 35.5962 53.8081 36.1669 53.8081C36.8871 53.8081 37.564 53.5277 38.073 53.0187C38.508 52.5839 38.7761 52.0266 38.8449 51.4246C39.8396 51.8779 41.0547 51.6959 41.8718 50.879C42.7727 49.9782 42.9014 48.5931 42.2575 47.554C42.7975 47.4669 43.3158 47.2158 43.7312 46.8006C44.7822 45.7498 44.7822 44.04 43.7312 42.9891L43.2297 42.4879L50.6733 35.0462C50.9061 34.8135 50.9061 34.4362 50.6733 34.2035C50.4405 33.9711 50.0631 33.9711 49.8304 34.2037ZM18.1295 43.8322L18.6913 43.2706C18.9844 42.9775 19.3694 42.831 19.7546 42.831C20.1397 42.831 20.5247 42.9775 20.8179 43.2705C21.4039 43.8564 21.404 44.8096 20.8187 45.3958L20.2561 45.9581C19.6698 46.5444 18.7158 46.5443 18.1295 45.9581C17.5433 45.372 17.5433 44.4183 18.1295 43.8322ZM19.989 50.0366C19.4027 49.4505 19.4027 48.4967 19.989 47.9107L23.0252 44.8752C23.3092 44.5913 23.6867 44.4349 24.0885 44.4349C24.4901 44.4349 24.8678 44.5913 25.1518 44.8753C25.4357 45.1591 25.5922 45.5366 25.5922 45.9382C25.5922 46.3398 25.4357 46.7173 25.1517 47.0012L22.1155 50.0366C21.5293 50.6227 20.5752 50.6227 19.989 50.0366ZM23.7874 52.1757C23.5034 51.8921 23.347 51.5149 23.347 51.1134C23.347 50.7123 23.5033 50.3351 23.7868 50.0512L24.6314 49.2068C24.9245 48.9147 25.3087 48.7685 25.6934 48.7685C26.0785 48.7685 26.4636 48.9152 26.7568 49.2082C27.0409 49.4922 27.1974 49.8696 27.1974 50.271C27.1974 50.5711 27.1097 50.8583 26.9444 51.1042L25.9144 52.1759C25.3281 52.7622 24.3739 52.762 23.7874 52.1757ZM29.6749 54.3005C29.3909 54.5844 29.0133 54.7409 28.6116 54.7409C28.2101 54.7409 27.8327 54.5845 27.5489 54.3004C27.0483 53.7999 26.9654 53.0185 27.3451 52.4277L27.8376 51.8938L27.8637 51.8688C28.4496 51.3001 29.3962 51.3074 29.9738 51.885C30.2579 52.1689 30.4143 52.5463 30.4143 52.9477C30.4143 53.3574 30.2521 53.7406 29.9585 54.026L29.6819 54.2937C29.6795 54.2959 29.6772 54.2981 29.6749 54.3005Z" fill="#AA5858"></path><path d="M43.9075 22.7886C44.06 22.7886 44.2126 22.7304 44.329 22.6141L50.6733 16.2716C50.9061 16.0388 50.9061 15.6616 50.6733 15.4289C50.4405 15.1963 50.0632 15.1962 49.8304 15.4289L43.4861 21.7714C43.2533 22.0042 43.2533 22.3814 43.4861 22.6141C43.6025 22.7304 43.7549 22.7886 43.9075 22.7886Z" fill="#AA5858"></path><path d="M46.7406 29.6705C46.9733 29.4377 46.9733 29.0605 46.7406 28.8278C46.5078 28.5952 46.1306 28.5952 45.8979 28.8278L44.5339 30.1918C44.3012 30.4246 44.3012 30.8018 44.5339 31.0345C44.6503 31.1508 44.8028 31.209 44.9553 31.209C45.1078 31.209 45.2603 31.1508 45.3767 31.0345L46.7406 29.6705Z" fill="#AA5858"></path><path d="M38.8991 34.109H37.973C37.6437 34.109 37.377 34.3757 37.377 34.7049C37.377 35.034 37.6437 35.3007 37.973 35.3007H38.8991C40.3244 35.3007 41.6641 34.7459 42.6717 33.7386L43.6512 32.7594C43.8839 32.5266 43.8839 32.1494 43.6512 31.9167C43.4183 31.684 43.041 31.684 42.8082 31.9167L41.8287 32.896C41.0463 33.6781 40.0059 34.109 38.8991 34.109Z" fill="#AA5858"></path><path d="M43.3133 34.3805C43.0805 34.6133 43.0805 34.9906 43.3132 35.2232L44.276 36.186C44.3924 36.3024 44.5448 36.3606 44.6974 36.3606C44.8498 36.3606 45.0024 36.3024 45.1187 36.1861C45.3515 35.9534 45.3515 35.5761 45.1188 35.3435L44.156 34.3806C43.9233 34.1479 43.546 34.1478 43.3133 34.3805Z" fill="#AA5858"></path><path d="M25.9667 21.7559C26.1988 21.9893 26.5762 21.9904 26.8095 21.7584C27.043 21.5264 27.0441 21.1491 26.8121 20.9158L26.2091 20.3093C25.7673 19.8678 25.532 19.2806 25.5461 18.656C25.5603 18.0319 25.8231 17.4554 26.2861 17.0328C27.1337 16.2592 28.4666 16.2531 29.3206 17.019C29.6089 17.2775 29.8195 17.5911 29.9469 17.9514C30.031 18.1895 30.2562 18.3488 30.5088 18.3488C30.7614 18.3488 30.9867 18.1895 31.0707 17.9514C31.1981 17.5911 31.4087 17.2775 31.697 17.019C32.5509 16.2531 33.8838 16.2592 34.7315 17.0328C35.1945 17.4554 35.4573 18.0318 35.4715 18.656C35.4857 19.2806 35.2503 19.8678 34.8074 20.3105L30.509 24.6329L28.7811 22.8951C28.5491 22.6617 28.1717 22.6607 27.9382 22.8926C27.7048 23.1246 27.7036 23.5019 27.9357 23.7352L30.0863 25.8982C30.1982 26.0107 30.3503 26.074 30.509 26.074C30.6677 26.074 30.8198 26.0108 30.9316 25.8983L35.6516 21.1521C36.3257 20.4781 36.685 19.582 36.6633 18.6289C36.6417 17.6762 36.2411 16.7968 35.5353 16.1526C34.241 14.9715 32.2056 14.9625 30.9011 16.1319C30.7589 16.2594 30.6278 16.3983 30.5089 16.5465C30.3901 16.3983 30.2589 16.2595 30.1166 16.1319C28.8124 14.9625 26.777 14.9714 25.4824 16.1526C24.7767 16.7968 24.3761 17.6762 24.3544 18.6289C24.3328 19.582 24.6921 20.478 25.365 21.1507L25.9667 21.7559Z" fill="#AA5858"></path><circle cx="30" cy="30" r="29.5" stroke="#AA5858" stroke-opacity="0.8"></circle></svg>