<svg xmlns="http://www.w3.org/2000/svg" width="60" height="60" viewBox="0 0 60 60" fill="none"><path d="M37.9667 47.7967H23.0515C21.9328 47.7967 21.0176 46.8814 21.0176 45.7628C21.0176 41.6475 24.36 38.3052 28.4752 38.3052H32.543C36.6583 38.3052 40.0006 41.6475 40.0006 45.7628C40.0006 46.8814 39.0854 47.7967 37.9667 47.7967ZM28.4752 39.6611C25.1125 39.6611 22.3735 42.4001 22.3735 45.7628C22.3735 46.1357 22.6786 46.4408 23.0515 46.4408H37.9667C38.3396 46.4408 38.6447 46.1357 38.6447 45.7628C38.6447 42.4001 35.9057 39.6611 32.543 39.6611H28.4752Z" fill="#AA5858"></path><path d="M30.5087 36.949C27.5189 36.949 25.085 34.5151 25.085 31.5253C25.085 28.5355 27.5189 26.1016 30.5087 26.1016C33.4985 26.1016 35.9324 28.5355 35.9324 31.5253C35.9324 34.5151 33.4985 36.949 30.5087 36.949ZM30.5087 27.4575C28.2646 27.4575 26.4409 29.2812 26.4409 31.5253C26.4409 33.7694 28.2646 35.5931 30.5087 35.5931C32.7528 35.5931 34.5765 33.7694 34.5765 31.5253C34.5765 29.2812 32.7528 27.4575 30.5087 27.4575Z" fill="#AA5858"></path><path d="M19.0784 45.0848H12.2038C11.0852 45.0848 10.1699 44.1696 10.1699 43.0509C10.1699 41.4238 10.8004 39.8916 11.953 38.739C13.1123 37.5865 14.6445 36.9492 16.2716 36.9492H20.3394C21.2886 36.9492 22.2242 37.1729 23.0581 37.5933C23.3903 37.7628 23.5259 38.1696 23.3564 38.5018C23.1869 38.834 22.7801 38.9696 22.4479 38.8001C21.797 38.4679 21.0852 38.3052 20.3394 38.3052H16.2716C15.0106 38.3052 13.8174 38.8001 12.9089 39.695C12.014 40.5967 11.5259 41.7899 11.5259 43.0509C11.5259 43.4238 11.8309 43.7289 12.2038 43.7289H19.0784C19.4513 43.7289 19.7564 44.034 19.7564 44.4068C19.7564 44.7797 19.4513 45.0848 19.0784 45.0848Z" fill="#AA5858"></path><path d="M18.3053 35.5931C15.6884 35.5931 13.5596 33.4643 13.5596 30.8473C13.5596 28.2304 15.6884 26.1016 18.3053 26.1016C20.9223 26.1016 23.0511 28.2304 23.0511 30.8473C23.0511 33.4643 20.9223 35.5931 18.3053 35.5931ZM18.3053 27.4575C16.4341 27.4575 14.9155 28.9761 14.9155 30.8473C14.9155 32.7185 16.4341 34.2372 18.3053 34.2372C20.1765 34.2372 21.6952 32.7185 21.6952 30.8473C21.6952 28.9761 20.1765 27.4575 18.3053 27.4575Z" fill="#AA5858"></path><path d="M48.8145 45.0848H41.94C41.5671 45.0848 41.262 44.7797 41.262 44.4068C41.262 44.034 41.5671 43.7289 41.94 43.7289H48.8145C48.9976 43.7289 49.1603 43.6611 49.2823 43.5323C49.4179 43.3967 49.4925 43.234 49.4925 43.0509C49.4925 40.434 47.3637 38.3052 44.7467 38.3052H40.679C39.9332 38.3052 39.2213 38.4746 38.5705 38.8001C38.2383 38.9696 37.8315 38.834 37.662 38.5018C37.4925 38.1696 37.6281 37.7628 37.9603 37.5933C38.8078 37.1662 39.7162 36.9492 40.679 36.9492H44.7467C48.1095 36.9492 50.8484 39.6882 50.8484 43.0509C50.8484 43.6001 50.6315 44.1153 50.2451 44.495C49.879 44.8746 49.3637 45.0848 48.8145 45.0848Z" fill="#AA5858"></path><path d="M42.7126 35.5931C40.0956 35.5931 37.9668 33.4643 37.9668 30.8473C37.9668 28.2304 40.0956 26.1016 42.7126 26.1016C45.3295 26.1016 47.4583 28.2304 47.4583 30.8473C47.4583 33.4643 45.3295 35.5931 42.7126 35.5931ZM42.7126 27.4575C40.8414 27.4575 39.3227 28.9761 39.3227 30.8473C39.3227 32.7185 40.8414 34.2372 42.7126 34.2372C44.5837 34.2372 46.1024 32.7185 46.1024 30.8473C46.1024 28.9761 44.5837 27.4575 42.7126 27.4575Z" fill="#AA5858"></path><path d="M30.5089 24.7458C25.6479 24.7458 21.6953 20.7932 21.6953 15.9322C21.6953 11.0712 25.6479 7.11865 30.5089 7.11865C35.3699 7.11865 39.3224 11.0712 39.3224 15.9322C39.3224 20.7932 35.3699 24.7458 30.5089 24.7458ZM30.5089 8.47458C26.3936 8.47458 23.0512 11.817 23.0512 15.9322C23.0512 20.0475 26.3936 23.3898 30.5089 23.3898C34.6241 23.3898 37.9665 20.0475 37.9665 15.9322C37.9665 11.817 34.6241 8.47458 30.5089 8.47458Z" fill="#AA5858"></path><path d="M29.153 18.9828C28.9767 18.9828 28.8072 18.915 28.6717 18.7862L26.6378 16.7523C26.3734 16.4879 26.3734 16.0608 26.6378 15.7964C26.9022 15.532 27.3293 15.532 27.5937 15.7964L29.1462 17.3489L33.4106 13.0845C33.675 12.8201 34.1022 12.8201 34.3666 13.0845C34.631 13.3489 34.631 13.7761 34.3666 14.0405L29.6208 18.7862C29.4852 18.9218 29.3157 18.9828 29.1395 18.9828H29.153Z" fill="#AA5858"></path><circle cx="30" cy="30" r="29.5" stroke="#AA5858" stroke-opacity="0.8"></circle></svg>