<svg xmlns="http://www.w3.org/2000/svg" width="60" height="60" viewBox="0 0 60 60" fill="none"><path d="M42.525 45.9698C42.1438 45.9698 41.8896 45.7107 41.8896 45.3221V31.7845C41.8896 31.3958 42.1438 31.1367 42.525 31.1367C42.9062 31.1367 43.1603 31.3958 43.1603 31.7845V45.3221C43.1603 45.7107 42.9062 45.9698 42.525 45.9698Z" fill="#AA5858"></path><path d="M42.5252 15.0729C42.144 15.0729 41.8899 14.8138 41.8899 14.4252C41.8899 13.324 41.0639 12.482 39.9839 12.482H15.0787C14.6975 12.482 14.4434 12.2229 14.4434 11.8343C14.4434 11.4456 14.6975 11.1865 15.0787 11.1865H39.9839C41.7628 11.1865 43.1606 12.6115 43.1606 14.4252C43.1606 14.8138 42.9064 15.0729 42.5252 15.0729Z" fill="#AA5858"></path><path d="M46.0835 51.8641H23.0843C20.4794 51.8641 18.3828 49.7266 18.3828 47.0709V36.2537C18.3828 35.8651 18.6369 35.606 19.0181 35.606C19.3994 35.606 19.6535 35.8651 19.6535 36.2537V47.0709C19.6535 48.9493 21.2418 50.5686 23.0843 50.5686C24.0373 50.5686 24.8632 50.18 25.4986 49.5322C26.1974 48.8197 26.5151 47.9777 26.5151 47.0709V45.322C26.5151 44.9333 26.7692 44.6742 27.1505 44.6742H50.2131C50.5943 44.6742 50.8485 44.9333 50.8485 45.322V47.0709C50.8485 48.4311 50.3402 49.597 49.4507 50.4391C48.5613 51.3459 47.3541 51.8641 46.0835 51.8641ZM26.261 50.5686H46.0835C47.0365 50.5686 47.8624 50.18 48.5613 49.5322C49.1966 48.8845 49.5778 48.0425 49.5778 47.0709V45.9697H27.7858V47.0709C27.7858 48.3015 27.2775 49.5322 26.388 50.4391C26.3245 50.5038 26.3245 50.5038 26.261 50.5686Z" fill="#AA5858"></path><path d="M19.0181 29.9708C18.6369 29.9708 18.3828 29.7117 18.3828 29.3231V15.9798C18.3828 15.5911 18.6369 15.332 19.0181 15.332C19.3994 15.332 19.6535 15.5911 19.6535 15.9798V29.3231C19.6535 29.7117 19.3994 29.9708 19.0181 29.9708Z" fill="#AA5858"></path><path d="M19.0177 20.1902H10.8219C10.4407 20.1902 10.1865 19.9311 10.1865 19.5425V16.0447C10.1865 13.389 12.2831 11.2515 14.888 11.2515C17.4929 11.2515 19.5895 13.389 19.5895 16.0447V19.2834C19.653 19.3481 19.653 19.4777 19.653 19.5425C19.653 19.9311 19.3989 20.1902 19.0177 20.1902ZM11.4572 18.8947H18.3188V16.0447C18.3188 14.1015 16.794 12.5469 14.888 12.5469C12.982 12.5469 11.4572 14.1015 11.4572 16.0447V18.8947Z" fill="#AA5858"></path><path d="M46.0822 31.1366H41.9525C41.1266 31.1366 40.4277 30.4241 40.4277 29.5821V29.4525C40.4277 28.6105 41.1266 27.8979 41.9525 27.8979H46.0822C46.9082 27.8979 47.607 28.6105 47.607 29.4525V29.5821C47.607 30.4241 46.9082 31.1366 46.0822 31.1366ZM41.9525 29.1934C41.8255 29.1934 41.6984 29.323 41.6984 29.4525V29.5821C41.6984 29.7116 41.8255 29.8412 41.9525 29.8412H46.0822C46.2093 29.8412 46.3364 29.7116 46.3364 29.5821V29.4525C46.3364 29.323 46.2093 29.1934 46.0822 29.1934H41.9525Z" fill="#AA5858"></path><path d="M46.337 29.1936H41.8261C41.4449 29.1936 41.1907 28.9345 41.1907 28.5458V28.4811C41.1907 27.1208 40.6189 25.8901 39.6659 24.8538C38.3317 23.4935 37.6964 21.4855 37.9505 19.5423C38.3953 16.6923 40.6189 14.5548 43.3509 14.2309C45.1298 14.0366 46.8452 14.6843 48.1794 15.8503C49.4501 17.0162 50.2125 18.7651 50.2125 20.5139C50.2125 22.1981 49.5772 23.7526 48.4971 24.8538C47.4806 25.8901 46.9723 27.1208 46.9723 28.4811V28.5458C46.9723 28.9345 46.7182 29.1936 46.337 29.1936ZM42.4614 27.8981H45.7652C45.8922 26.4083 46.5276 25.0481 47.6076 23.9469C48.4336 23.1049 48.9418 21.8094 48.9418 20.5139C48.9418 19.1537 48.37 17.7935 47.3535 16.8219C46.337 15.8503 44.8757 15.3968 43.478 15.5264C41.3813 15.7207 39.5389 17.5344 39.2212 19.7367C39.0306 21.2912 39.5389 22.9106 40.5554 23.9469C41.6355 25.0481 42.2708 26.4083 42.4614 27.8981Z" fill="#AA5858"></path><path d="M44.049 33.0798C42.7148 33.0798 41.6348 31.9787 41.6348 30.6184C41.6348 30.2298 41.8889 29.9707 42.2701 29.9707C42.6513 29.9707 42.9054 30.2298 42.9054 30.6184C42.9054 31.2014 43.4772 31.7844 44.049 31.7844C44.6208 31.7844 45.1926 31.2014 45.1926 30.6184C45.1926 30.2298 45.4468 29.9707 45.828 29.9707C46.2092 29.9707 46.4633 30.2298 46.4633 30.6184C46.4633 31.9787 45.3832 33.0798 44.049 33.0798Z" fill="#AA5858"></path><path d="M30.0083 27.1207C29.0553 27.056 28.1023 26.7321 27.2763 26.2787C26.9587 26.0844 26.8951 25.7605 27.0222 25.4366C27.2763 24.9832 27.2128 24.5946 27.1493 24.5946C27.0857 24.5298 26.7681 24.6593 26.3869 24.9184C26.1327 25.1128 25.7515 25.048 25.5609 24.7889C24.9256 24.0116 24.4808 23.1048 24.2902 22.198C24.2267 21.8741 24.4173 21.5502 24.6714 21.4207C25.1797 21.2264 25.3068 21.032 25.3703 20.9673C25.3703 20.9025 25.1162 20.6434 24.6079 20.5786C24.2902 20.5139 24.0361 20.2548 24.0996 19.8661C24.1632 18.8945 24.4808 17.9877 24.9256 17.1456C25.1162 16.8218 25.4339 16.757 25.7515 16.8865C26.1963 17.1456 26.5139 17.0809 26.5775 17.0161C26.641 16.9513 26.5139 16.6274 26.2598 16.2388C26.0692 15.9797 26.1327 15.5911 26.3869 15.3968C27.1493 14.749 28.0387 14.2956 28.9282 14.1013C29.2459 14.0365 29.5635 14.2308 29.6906 14.5547C29.8177 14.9433 30.0083 15.2024 30.1353 15.2024C30.1989 15.2024 30.453 14.9433 30.5165 14.4252C30.5801 14.1013 30.8342 13.8422 31.2154 13.907C32.1684 13.9717 33.0579 14.2956 33.8838 14.749C34.2015 14.9433 34.265 15.2672 34.138 15.5911C33.8838 16.0445 33.9474 16.4331 34.0109 16.4331C34.0744 16.4979 34.3286 16.4979 34.7733 16.174C35.0274 15.9797 35.4086 16.0445 35.5992 16.3036C36.2346 17.0809 36.6793 17.9877 36.8699 18.8945C36.9334 19.2184 36.7428 19.5423 36.4887 19.6718C35.9804 19.8661 35.8534 20.0604 35.7898 20.1252C35.7898 20.19 36.044 20.4491 36.5522 20.5139C36.8699 20.5786 37.124 20.8377 37.0605 21.2264C36.997 22.198 36.6793 23.1048 36.2346 23.9468C36.044 24.2707 35.7263 24.3355 35.4086 24.2059C34.9639 23.9468 34.5827 24.0116 34.5827 24.0764C34.5192 24.1412 34.6462 24.465 34.9004 24.8537C35.091 25.1128 35.0274 25.5014 34.7733 25.6957C34.0109 26.3435 33.1214 26.7969 32.2319 26.9912C31.9143 27.056 31.5966 26.8616 31.4695 26.6026C31.2789 26.1491 31.0883 25.9548 30.9613 25.89C30.8342 25.9548 30.6436 26.2139 30.5801 26.6673C30.5801 26.9264 30.3259 27.1207 30.0083 27.1207ZM28.3564 25.3719C28.7376 25.5662 29.1188 25.6957 29.5 25.7605C29.7541 25.1128 30.2624 24.5946 30.8342 24.5298H30.8977C31.4695 24.5298 32.0413 24.9184 32.359 25.5662C32.7402 25.4366 33.1214 25.2423 33.4391 24.9832C32.9943 24.0116 33.312 23.4287 33.5026 23.1048C33.9474 22.6514 34.5827 22.5218 35.2816 22.7161C35.4722 22.3275 35.5992 21.9389 35.6628 21.5502C35.0274 21.2911 34.5192 20.7729 34.4556 20.19C34.3921 19.5423 34.7098 18.9593 35.4086 18.5706C35.2816 18.182 35.091 17.7934 34.8368 17.4047C34.138 17.7286 33.4391 17.6638 32.9944 17.2104C32.6131 16.8218 32.4861 16.174 32.6767 15.4615C32.4225 15.332 31.9778 15.2024 31.5966 15.1377C31.3425 15.7854 30.8342 16.3036 30.2624 16.3684C29.6271 16.4331 28.9917 16.1093 28.6741 15.3968C28.2929 15.5263 27.9752 15.7206 27.594 15.9797C28.0387 16.9513 27.7211 17.5343 27.5305 17.8581C27.0857 18.3116 26.4504 18.4411 25.7515 18.2468C25.5609 18.6354 25.4339 19.0241 25.3703 19.4127C26.0057 19.6718 26.5139 20.19 26.5775 20.7729C26.641 21.4207 26.3233 22.0036 25.6245 22.3923C25.7515 22.7809 25.9421 23.1696 26.1963 23.4934C27.1493 23.04 27.7211 23.3639 28.0387 23.5582C28.4199 24.0116 28.547 24.6593 28.3564 25.3719Z" fill="#AA5858"></path><path d="M30.453 23.5583C29.8177 23.5583 29.1188 23.364 28.547 22.9105C27.9117 22.3924 27.4669 21.6798 27.4034 20.8378C27.3399 20.0605 27.5305 19.2185 28.0387 18.5707C29.1823 17.2105 31.0248 17.0162 32.2955 18.0525C33.5662 19.1537 33.8203 21.0321 32.8037 22.3924C32.2319 23.1696 31.3425 23.5583 30.453 23.5583ZM30.5165 18.7003C30.0083 18.7003 29.5 18.9594 29.0553 19.4128C28.8011 19.8014 28.6105 20.2548 28.6741 20.7082C28.7376 21.1617 28.9282 21.6151 29.3094 21.8742C30.1353 22.5219 31.1519 22.3924 31.7872 21.6151C32.359 20.8378 32.2955 19.7366 31.4695 19.0889C31.2789 18.8298 30.8977 18.7003 30.5165 18.7003Z" fill="#AA5858"></path><path d="M20.4149 38.9744C20.3514 38.9744 20.3514 38.9744 20.2878 38.9744C20.0972 38.9744 19.9702 38.8448 19.9066 38.7153L10.5672 24.789C10.4401 24.5947 10.4401 24.3356 10.5036 24.1412C11.266 22.7162 12.4732 21.8742 14.0615 21.7446C14.3157 21.7446 14.5063 21.8094 14.6333 22.0037L23.9728 35.8652C24.1634 36.1891 24.0998 36.5777 23.7822 36.7721L20.7326 38.9096C20.669 38.9096 20.542 38.9744 20.4149 38.9744ZM11.8379 24.4003L20.6055 37.4846L22.575 36.0596L13.8074 23.0401C12.9815 23.1696 12.2826 23.6231 11.8379 24.4003Z" fill="#AA5858"></path><path d="M23.9725 40.9174C23.8454 40.9174 23.7819 40.9174 23.6548 40.8527L20.097 38.9095C19.9064 38.7799 19.7793 38.5856 19.7793 38.3913C19.7793 38.197 19.8428 37.9379 20.0334 37.8083L23.083 35.6708C23.2736 35.5413 23.5278 35.5412 23.7184 35.606C23.909 35.6708 24.036 35.8651 24.0996 36.1242L24.6079 40.2049C24.6079 40.464 24.5443 40.6583 24.3537 40.8527C24.2266 40.8527 24.0996 40.9174 23.9725 40.9174ZM21.6218 38.2617L23.1466 39.1038L22.956 37.3549L21.6218 38.2617Z" fill="#AA5858"></path><path d="M12.6004 31.525C12.4098 31.525 12.2192 31.4602 12.0921 31.2659L10.5038 28.9341C10.2496 28.6102 10.1226 28.1568 10.1861 27.7034C10.2496 27.25 10.5038 26.7966 10.9485 26.5375L12.0286 25.825L15.0782 23.6874C15.3959 23.4931 15.7771 23.5579 15.9677 23.8818C16.1583 24.2056 16.0947 24.5943 15.7771 24.7886L12.7275 26.8613L11.6474 27.5738C11.5203 27.6386 11.4568 27.7682 11.4568 27.8977C11.4568 27.9625 11.4568 28.0272 11.5203 28.1568C11.5203 28.1568 11.5203 28.2216 11.5839 28.2216L13.1722 30.5534C13.3628 30.8773 13.2993 31.2659 12.9816 31.4602C12.8545 31.4602 12.7275 31.525 12.6004 31.525Z" fill="#AA5858"></path><path d="M38.5218 29.5171H28.9918C28.6106 29.5171 28.3564 29.2581 28.3564 28.8694C28.3564 28.4808 28.6106 28.2217 28.9918 28.2217H38.5218C38.903 28.2217 39.1572 28.4808 39.1572 28.8694C39.1572 29.2581 38.903 29.5171 38.5218 29.5171Z" fill="#AA5858"></path><path d="M26.451 29.5171H21.8765C21.4953 29.5171 21.2412 29.2581 21.2412 28.8694C21.2412 28.4808 21.4953 28.2217 21.8765 28.2217H26.451C26.8322 28.2217 27.0863 28.4808 27.0863 28.8694C27.0863 29.2581 26.8322 29.5171 26.451 29.5171Z" fill="#AA5858"></path><path d="M39.1569 32.3023H35.7896C35.4084 32.3023 35.1543 32.0432 35.1543 31.6546C35.1543 31.2659 35.4084 31.0068 35.7896 31.0068H39.1569C39.5381 31.0068 39.7923 31.2659 39.7923 31.6546C39.7923 32.0432 39.5381 32.3023 39.1569 32.3023Z" fill="#AA5858"></path><path d="M33.6298 32.3023H23.4644C23.0832 32.3023 22.8291 32.0432 22.8291 31.6546C22.8291 31.2659 23.0832 31.0068 23.4644 31.0068H33.6298C34.011 31.0068 34.2652 31.2659 34.2652 31.6546C34.2652 32.0432 34.011 32.3023 33.6298 32.3023Z" fill="#AA5858"></path><path d="M39.1576 35.0875H30.6441C30.2629 35.0875 30.0088 34.8284 30.0088 34.4397C30.0088 34.0511 30.2629 33.792 30.6441 33.792H39.1576C39.5388 33.792 39.793 34.0511 39.793 34.4397C39.793 34.8284 39.5388 35.0875 39.1576 35.0875Z" fill="#AA5858"></path><path d="M28.2296 35.0875H25.4342C25.053 35.0875 24.7988 34.8284 24.7988 34.4397C24.7988 34.0511 25.053 33.792 25.4342 33.792H28.2296C28.6108 33.792 28.865 34.0511 28.865 34.4397C28.865 34.8284 28.6108 35.0875 28.2296 35.0875Z" fill="#AA5858"></path><path d="M39.157 37.8082H36.7428C36.3616 37.8082 36.1074 37.5491 36.1074 37.1604C36.1074 36.7718 36.3616 36.5127 36.7428 36.5127H39.157C39.5382 36.5127 39.7924 36.7718 39.7924 37.1604C39.7924 37.5491 39.5382 37.8082 39.157 37.8082Z" fill="#AA5858"></path><path d="M34.5195 37.8082H26.4508C26.0696 37.8082 25.8154 37.5491 25.8154 37.1604C25.8154 36.7718 26.0696 36.5127 26.4508 36.5127H34.5195C34.9007 36.5127 35.1549 36.7718 35.1549 37.1604C35.1549 37.5491 34.9007 37.8082 34.5195 37.8082Z" fill="#AA5858"></path><path d="M39.2212 40.5933H36.0445C35.6633 40.5933 35.4092 40.3342 35.4092 39.9456C35.4092 39.5569 35.6633 39.2979 36.0445 39.2979H39.2212C39.6024 39.2979 39.8565 39.5569 39.8565 39.9456C39.8565 40.3342 39.6024 40.5933 39.2212 40.5933Z" fill="#AA5858"></path><path d="M33.6936 40.5933H26.4508C26.0696 40.5933 25.8154 40.3342 25.8154 39.9456C25.8154 39.5569 26.0696 39.2979 26.4508 39.2979H33.6936C34.0748 39.2979 34.3289 39.5569 34.3289 39.9456C34.3289 40.3342 34.0748 40.5933 33.6936 40.5933Z" fill="#AA5858"></path><path d="M39.2212 43.379H34.901C34.5198 43.379 34.2656 43.1199 34.2656 42.7312C34.2656 42.3426 34.5198 42.0835 34.901 42.0835H39.2212C39.6024 42.0835 39.8566 42.3426 39.8566 42.7312C39.8566 43.1199 39.6024 43.379 39.2212 43.379Z" fill="#AA5858"></path><path d="M32.2955 43.379H27.9752C27.594 43.379 27.3398 43.1199 27.3398 42.7312C27.3398 42.3426 27.594 42.0835 27.9752 42.0835H32.2955C32.6767 42.0835 32.9308 42.3426 32.9308 42.7312C32.9308 43.1199 32.6767 43.379 32.2955 43.379Z" fill="#AA5858"></path><path d="M25.8156 43.379H21.8765C21.4953 43.379 21.2412 43.1199 21.2412 42.7312C21.2412 42.3426 21.4953 42.0835 21.8765 42.0835H25.8156C26.1968 42.0835 26.451 42.3426 26.451 42.7312C26.451 43.1199 26.1968 43.379 25.8156 43.379Z" fill="#AA5858"></path><path d="M44.0494 29.064C43.6682 29.064 43.4141 28.8049 43.4141 28.4162V23.1048C43.4141 22.9105 43.4776 22.781 43.6047 22.6514L44.8753 21.3559C45.1295 21.0968 45.5107 21.0968 45.7648 21.3559C46.0189 21.615 46.0189 22.0037 45.7648 22.2628L44.6847 23.3639V28.4162C44.6847 28.8049 44.4306 29.064 44.0494 29.064Z" fill="#AA5858"></path><path d="M44.0496 23.7526C43.859 23.7526 43.7319 23.6878 43.6048 23.5582L42.3342 22.2628C42.08 22.0037 42.08 21.615 42.3342 21.3559C42.5883 21.0968 42.9695 21.0968 43.2236 21.3559L44.4943 22.6514C44.7484 22.9105 44.7484 23.2991 44.4943 23.5582C44.3672 23.6878 44.2402 23.7526 44.0496 23.7526Z" fill="#AA5858"></path><circle cx="30" cy="30" r="29.5" stroke="#AA5858" stroke-opacity="0.8"></circle></svg>