<svg xmlns="http://www.w3.org/2000/svg" width="65" height="65" viewBox="0 0 65 65" fill="none"><path d="M59.7839 29.9582C60.835 28.7652 61.4553 27.2072 61.4553 25.5549C61.4553 21.886 58.4704 18.9011 54.8015 18.9011C51.1325 18.9011 48.1476 21.886 48.1476 25.5549C48.1476 27.2072 48.7678 28.7652 49.8191 29.9582C46.9268 30.0533 44.6028 32.4341 44.6028 35.3491V38.9595H42.9736V28.8967C42.9736 26.0122 40.6984 23.6494 37.8483 23.5081C38.668 22.4019 39.1539 21.0341 39.1539 19.5547C39.1539 15.8858 36.1689 12.9009 32.5 12.9009C28.8311 12.9009 25.8461 15.8858 25.8461 19.5547C25.8461 21.0341 26.332 22.4019 27.1517 23.5081C24.3016 23.6494 22.0264 26.0122 22.0264 28.8967V38.9595H20.3972V35.3491C20.3972 32.4341 18.0733 30.0534 15.1811 29.9582C16.2322 28.7652 16.8525 27.2072 16.8525 25.5549C16.8525 21.886 13.8676 18.9011 10.1987 18.9011C6.52971 18.9011 3.54466 21.886 3.54466 25.5549C3.54466 27.2072 4.16495 28.7653 5.21612 29.9582C2.32388 30.0534 0 32.4343 0 35.3491V55.9078C0 57.1327 0.996709 58.1295 2.22168 58.1295H9.5536V62.3824C9.5536 63.2575 10.2654 63.9693 11.1405 63.9693H16.5674C17.4425 63.9693 18.1543 63.2575 18.1543 62.3824V58.1295H20.4395V62.3824C20.4395 63.2575 21.1513 63.9693 22.0264 63.9693H27.4431C28.3182 63.9693 29.03 63.2575 29.03 62.3824V52.607C29.03 50.332 27.179 48.481 24.904 48.481H20.3972V46.3228H44.603V48.481H40.0961C37.821 48.481 35.9701 50.332 35.9701 52.607V62.3824C35.9701 63.2575 36.682 63.9693 37.5571 63.9693H42.9736C43.8487 63.9693 44.5605 63.2575 44.5605 62.3824V58.1295H46.8457V62.3824C46.8457 63.2575 47.5575 63.9693 48.4326 63.9693H53.8594C54.7344 63.9693 55.4463 63.2575 55.4463 62.3824V58.1295H62.7783C64.0033 58.1295 65 57.1327 65 55.9078V35.3491C65 32.4343 62.6761 30.0534 59.7839 29.9582ZM54.8015 20.8054C57.4204 20.8054 59.551 22.936 59.551 25.5549C59.551 27.4816 58.3701 29.229 56.5962 29.9536H53.0067C51.2327 29.229 50.0519 27.4816 50.0519 25.5549C50.0519 22.936 52.1826 20.8054 54.8015 20.8054ZM41.0693 28.8968V38.9597H36.0216L34.5145 29.2099L35.9322 25.4056H37.5781C39.5031 25.4056 41.0693 26.9719 41.0693 28.8968ZM32.8743 28.1579H32.1144L31.3342 26.1045C31.713 26.1718 32.1021 26.2089 32.5 26.2089C32.888 26.2089 33.2676 26.1736 33.6375 26.1096L32.8743 28.1579ZM32.2709 30.0621H32.7194L34.0948 38.9597H30.8618L32.2709 30.0621ZM32.5 14.8053C35.1189 14.8053 37.2496 16.936 37.2496 19.5549C37.2496 22.1738 35.1189 24.3046 32.5 24.3046C29.8811 24.3046 27.7504 22.1739 27.7504 19.5549C27.7504 16.936 29.8811 14.8053 32.5 14.8053ZM23.9307 28.8968C23.9307 26.9717 25.4968 25.4056 27.4219 25.4056H29.0315L30.4775 29.2112L28.9336 38.9597H23.9307V28.8968ZM10.1985 20.8054C12.8174 20.8054 14.9481 22.936 14.9481 25.5549C14.9481 27.4816 13.7673 29.229 11.9931 29.9536H8.40392C6.62975 29.229 5.44896 27.4816 5.44896 25.5549C5.44896 22.936 7.57961 20.8054 10.1985 20.8054ZM1.9043 55.9079V54.194H3.80859C4.33443 54.194 4.76074 53.7677 4.76074 53.2419C4.76074 52.716 4.33443 52.2897 3.80859 52.2897H1.9043V39.6579C1.9043 39.483 2.04674 39.3405 2.22168 39.3405H13.7744C13.9494 39.3405 14.0918 39.483 14.0918 39.6579V52.2897H8.25195C7.72611 52.2897 7.2998 52.716 7.2998 53.2419C7.2998 53.7677 7.72611 54.194 8.25195 54.194H22.6611C22.8361 54.194 22.9785 54.3365 22.9785 54.5114V55.9079C22.9785 56.0828 22.8361 56.2253 22.6611 56.2253H2.22168C2.04674 56.2253 1.9043 56.0828 1.9043 55.9079ZM16.25 62.0651H11.4579V58.1296H16.25V62.0651ZM27.1257 52.6071V62.0651H22.3438V58.1296H22.6611C23.8861 58.1296 24.8828 57.1329 24.8828 55.9079V54.5114C24.8828 53.2864 23.8861 52.2897 22.6611 52.2897H15.9961V50.3854H24.904C26.129 50.3854 27.1257 51.382 27.1257 52.6071ZM15.9961 48.4811V39.6579C15.9961 38.4329 14.9994 37.4362 13.7744 37.4362H2.22168C2.11364 37.4362 2.00827 37.4466 1.9043 37.4616V35.3492C1.9043 33.4241 3.47039 31.858 5.39551 31.858H15.0017C16.9268 31.858 18.4929 33.4241 18.4929 35.3492V48.4811H15.9961ZM20.3972 44.4186V40.864H44.603V44.4186H20.3972ZM46.5071 35.3491C46.5071 33.424 48.0733 31.8579 49.9983 31.8579H59.6045C61.5295 31.8579 63.0957 33.424 63.0957 35.3491V37.4615C62.9917 37.4465 62.8864 37.4361 62.7783 37.4361H51.2256C50.0006 37.4361 49.0039 38.4328 49.0039 39.6578V42.4024C49.0039 42.9282 49.4301 43.3545 49.9561 43.3545C50.482 43.3545 50.9082 42.9282 50.9082 42.4024V39.6579C50.9082 39.483 51.0505 39.3405 51.2256 39.3405H62.7783C62.9534 39.3405 63.0957 39.483 63.0957 39.6579V52.2897H50.9082V46.8457C50.9082 46.3199 50.482 45.8936 49.9561 45.8936C49.4301 45.8936 49.0039 46.3199 49.0039 46.8457V48.4811H46.5071V35.3491ZM42.6562 62.0651H37.8743V52.6071C37.8743 51.3821 38.871 50.3854 40.096 50.3854H49.0039V52.2897H42.3389C41.1139 52.2897 40.1172 53.2864 40.1172 54.5114V55.9079C40.1172 57.1329 41.1139 58.1296 42.3389 58.1296H42.6562V62.0651ZM53.542 62.0651H48.75V58.1296H53.542V62.0651ZM63.0957 55.9079C63.0957 56.0828 62.9534 56.2253 62.7783 56.2253H42.3389C42.1638 56.2253 42.0215 56.0828 42.0215 55.9079V54.5114C42.0215 54.3365 42.1638 54.194 42.3389 54.194H63.0957V55.9079Z" fill="#AA5858"></path><path d="M11.7432 7.28052H19.9951C20.521 7.28052 20.9473 6.85421 20.9473 6.32837C20.9473 5.80253 20.521 5.37622 19.9951 5.37622H11.7432C11.2173 5.37622 10.791 5.80253 10.791 6.32837C10.791 6.85421 11.2173 7.28052 11.7432 7.28052Z" fill="#AA5858"></path><path d="M11.7432 11.7239H19.9951C20.521 11.7239 20.9473 11.2976 20.9473 10.7717C20.9473 10.2459 20.521 9.81958 19.9951 9.81958H11.7432C11.2173 9.81958 10.791 10.2459 10.791 10.7717C10.791 11.2976 11.2173 11.7239 11.7432 11.7239Z" fill="#AA5858"></path><path d="M10.4795 16.0695H15.3126V16.8053C15.3126 17.3464 15.6356 17.8298 16.1355 18.0369C16.3014 18.1057 16.475 18.1391 16.647 18.1391C16.9932 18.1391 17.3325 18.0036 17.5882 17.748L19.2667 16.0695H21.2583C23.5333 16.0695 25.3843 14.2185 25.3843 11.9435V5.15649C25.3843 2.88149 23.5333 1.03052 21.2583 1.03052H10.4795C8.20449 1.03052 6.35352 2.88149 6.35352 5.15649V11.9435C6.35352 14.2187 8.20436 16.0695 10.4795 16.0695ZM8.25781 5.15649C8.25781 3.93152 9.25452 2.93481 10.4795 2.93481H21.2583C22.4833 2.93481 23.48 3.93152 23.48 5.15649V11.9435C23.48 13.1685 22.4833 14.1652 21.2583 14.1652H19.03C18.6739 14.1652 18.3393 14.3038 18.0875 14.5556L17.2151 15.428C17.1784 14.7255 16.5953 14.1652 15.8839 14.1652H10.4795C9.25452 14.1652 8.25781 13.1685 8.25781 11.9435V5.15649Z" fill="#AA5858"></path><path d="M45.0049 7.28052H53.2568C53.7828 7.28052 54.209 6.85421 54.209 6.32837C54.209 5.80253 53.7828 5.37622 53.2568 5.37622H45.0049C44.4789 5.37622 44.0527 5.80253 44.0527 6.32837C44.0527 6.85421 44.4789 7.28052 45.0049 7.28052Z" fill="#AA5858"></path><path d="M45.0049 11.7239H53.2568C53.7828 11.7239 54.209 11.2976 54.209 10.7717C54.209 10.2459 53.7828 9.81958 53.2568 9.81958H45.0049C44.4789 9.81958 44.0527 10.2459 44.0527 10.7717C44.0527 11.2976 44.4789 11.7239 45.0049 11.7239Z" fill="#AA5858"></path><path d="M43.7413 16.0695H45.733L47.4114 17.748C47.6671 18.0036 48.0066 18.1391 48.3527 18.1391C48.5246 18.1391 48.6983 18.1057 48.8642 18.0369C49.3641 17.8298 49.6869 17.3465 49.6869 16.8055V16.0695H54.52C56.7952 16.0695 58.646 14.2185 58.646 11.9435V5.15649C58.646 2.88149 56.7952 1.03052 54.52 1.03052H43.7412C41.4661 1.03052 39.6152 2.88149 39.6152 5.15649V6.32827C39.6152 6.85411 40.0414 7.28042 40.5674 7.28042C41.0933 7.28042 41.5195 6.85411 41.5195 6.32827V5.15649C41.5195 3.93152 42.5162 2.93481 43.7412 2.93481H54.52C55.745 2.93481 56.7417 3.93152 56.7417 5.15649V11.9435C56.7417 13.1685 55.745 14.1652 54.52 14.1652H49.1156C48.4042 14.1652 47.8211 14.7255 47.7845 15.428L46.9116 14.5551C46.6599 14.3037 46.3252 14.1653 45.9695 14.1653H43.7412C42.5162 14.1653 41.5195 13.1686 41.5195 11.9437V10.7719C41.5195 10.246 41.0933 9.81974 40.5674 9.81974C40.0414 9.81974 39.6152 10.246 39.6152 10.7719V11.9437C39.6154 14.2187 41.4662 16.0695 43.7413 16.0695Z" fill="#AA5858"></path></svg>