<svg xmlns="http://www.w3.org/2000/svg" width="65" height="65" viewBox="0 0 65 65" fill="none"><g clip-path="url(#clip0_3789_1143)"><path d="M25.347 59.7837C25.347 60.3444 24.9016 60.8039 24.341 60.8039C23.7804 60.8039 23.3208 60.3444 23.3208 59.7837V47.0072C23.3208 46.1454 23.694 45.369 24.2978 44.8089C24.8874 44.263 25.6781 43.9324 26.5546 43.9324H38.4394C39.3159 43.9324 40.1208 44.2625 40.6951 44.8089C41.2984 45.3695 41.6731 46.1454 41.6731 47.0072V59.7837C41.6731 60.3444 41.2273 60.8039 40.6667 60.8039C40.106 60.8039 39.6465 60.3444 39.6465 59.7837V47.0072C39.6465 46.7345 39.5312 46.4755 39.3301 46.2891C39.1006 46.088 38.7984 45.9585 38.4394 45.9585H33.5096V59.7842C33.5096 60.3449 33.0647 60.8044 32.5041 60.8044C31.944 60.8044 31.4839 60.3449 31.4839 59.7842V45.958H26.5546C26.2097 45.958 25.9076 46.088 25.6781 46.2886C25.477 46.475 25.3475 46.734 25.3475 47.0067L25.347 59.7837Z" fill="#AA5858"></path><path d="M22.4879 30.3083H29.1271C29.6877 30.3083 30.133 30.7542 30.133 31.3143V37.4943C30.133 38.055 29.6877 38.4993 29.1271 38.4993H22.4879C21.9273 38.4993 21.4819 38.0545 21.4819 37.4943V31.3143C21.4814 30.7542 21.9273 30.3083 22.4879 30.3083ZM22.4879 18.0208H29.1271C29.6877 18.0208 30.133 18.4666 30.133 19.0267V25.2063C30.133 25.7669 29.6877 26.2123 29.1271 26.2123H22.4879C21.9273 26.2123 21.4819 25.7664 21.4819 25.2063V19.0272C21.4814 18.4666 21.9273 18.0208 22.4879 18.0208ZM28.1069 20.0479H23.5081V24.1861H28.1069V20.0479ZM39.201 24.1861C39.7617 24.1861 40.2065 24.6462 40.2065 25.2068C40.2065 25.7674 39.7612 26.2128 39.201 26.2128H35.8815C35.3208 26.2128 34.8608 25.7669 34.8608 25.2068V19.0272C34.8608 18.4666 35.3203 18.0213 35.8815 18.0213C36.4421 18.0213 36.8874 18.4671 36.8874 19.0272V24.1861H39.201ZM35.8815 30.3083H42.5064C43.067 30.3083 43.5266 30.7542 43.5266 31.3143V37.4943C43.5266 38.055 43.067 38.4993 42.5064 38.4993H35.8815C35.3208 38.4993 34.8608 38.0545 34.8608 37.4943V31.3143C34.8608 30.7542 35.3208 30.3083 35.8815 30.3083ZM41.5009 32.335H36.8879V36.4736H41.5009V32.335ZM28.1069 32.335H23.5081V36.4736H28.1069V32.335Z" fill="#AA5858"></path><path d="M49.5766 31.1279C49.2897 31.6022 48.6722 31.7743 48.1974 31.4869C48.0389 31.3864 47.91 31.2574 47.8236 31.1137L39.1146 16.3541C38.6688 15.5924 38.2955 14.6154 38.066 13.7531C37.8355 12.8619 37.7207 11.9427 37.7207 10.9936C37.7207 7.96098 38.9425 5.21676 40.9397 3.21852C42.9232 1.23602 45.668 0 48.7148 0C51.747 0 54.4917 1.23602 56.4895 3.21902C58.4725 5.21727 59.709 7.96148 59.709 10.9941C59.709 11.9427 59.5795 12.8624 59.35 13.7536C59.1194 14.6737 58.7599 15.5355 58.315 16.3404L49.5766 31.1279ZM48.7148 28.6269L56.5611 15.3334C56.9206 14.687 57.208 13.9826 57.3949 13.2498C57.5813 12.5308 57.6818 11.7838 57.6818 10.9936C57.6818 8.5216 56.6768 6.28012 55.0523 4.65613C53.4284 3.03266 51.1864 2.02617 48.7148 2.02617C46.2286 2.02617 43.9866 3.03215 42.3631 4.65613C40.7529 6.28012 39.7474 8.5216 39.7474 10.9936C39.7474 11.7843 39.8474 12.5308 40.0206 13.2498C40.207 13.9679 40.4944 14.658 40.8392 15.3045L48.7148 28.6269Z" fill="#AA5858"></path><path d="M48.7148 5.13037C50.3245 5.13037 51.7901 5.79205 52.8529 6.8549C53.9168 7.90404 54.578 9.36959 54.578 10.9936C54.578 12.6171 53.9163 14.0836 52.8529 15.147C51.7896 16.1961 50.3245 16.8568 48.7148 16.8568C47.0908 16.8568 45.6247 16.1961 44.5614 15.147C43.498 14.0836 42.8516 12.6176 42.8516 10.9936C42.8516 9.36959 43.498 7.90404 44.5614 6.8549C45.6247 5.79154 47.0903 5.13037 48.7148 5.13037ZM51.4163 8.27779C50.7262 7.58818 49.7639 7.15705 48.7148 7.15705C47.6514 7.15705 46.6881 7.58818 45.9985 8.27779C45.3084 8.98213 44.8777 9.93021 44.8777 10.9941C44.8777 12.0574 45.3084 13.0203 45.9985 13.7104C46.6876 14.4 47.6514 14.8311 48.7148 14.8311C49.7639 14.8311 50.7262 14.4 51.4163 13.7104C52.1202 13.0208 52.5513 12.0574 52.5513 10.9941C52.5513 9.93021 52.1202 8.98213 51.4163 8.27779Z" fill="#AA5858"></path><path d="M53.3988 49.3646C52.8381 49.3646 52.3938 48.905 52.3938 48.3444C52.3938 47.7837 52.8386 47.3379 53.3988 47.3379H57.0779C58.3428 47.3379 59.4641 48.0712 59.9526 49.2351L64.7093 60.8183C64.9104 61.3068 64.982 61.7958 64.9246 62.2843C64.824 63.2761 64.1623 64.1952 63.2859 64.6553C62.8405 64.8854 62.352 65.0006 61.835 65.0006H3.17305C2.65559 65.0006 2.16707 64.8854 1.72172 64.6553C0.830512 64.1952 0.184067 63.2761 0.0693012 62.2843C0.0261372 61.7958 0.0977387 61.3068 0.284614 60.8183L5.05602 49.2351C5.54454 48.0712 6.66528 47.3379 7.93024 47.3379H11.5804C12.141 47.3379 12.5864 47.7843 12.5864 48.3444C12.5864 48.9045 12.141 49.3646 11.5804 49.3646H7.93024C7.48489 49.3646 7.09641 49.5799 6.92426 50.011L2.16758 61.5937C2.09547 61.7527 2.06704 61.9101 2.08125 62.0685C2.12442 62.3991 2.35446 62.7007 2.64188 62.8592C2.79981 62.9313 2.97196 62.9745 3.17356 62.9745H61.8361C62.0372 62.9745 62.2093 62.9313 62.3535 62.8592C62.6557 62.7007 62.8852 62.3996 62.9141 62.0685C62.9284 61.9101 62.9141 61.7527 62.842 61.5937L58.0854 50.011C57.9127 49.5794 57.5247 49.3646 57.0794 49.3646H53.3988Z" fill="#AA5858"></path><path d="M47.6947 35.4818C47.6947 34.9211 48.1542 34.4611 48.7149 34.4611C49.2755 34.4611 49.7208 34.9211 49.7208 35.4818V59.7831C49.7208 60.3438 49.275 60.8033 48.7149 60.8033H16.2936C15.7329 60.8033 15.2876 60.3438 15.2876 59.7831V15.3627C15.2876 14.5005 15.6613 13.724 16.2651 13.1639C16.84 12.6175 17.6449 12.2727 18.5213 12.2727H34.5159C35.0765 12.2727 35.5219 12.7323 35.5219 13.2934C35.5219 13.854 35.076 14.3136 34.5159 14.3136H18.5213C18.1618 14.3136 17.8602 14.4289 17.6306 14.6442C17.4295 14.8306 17.3143 15.0895 17.3143 15.3627V58.7767H47.6952L47.6947 35.4818Z" fill="#AA5858"></path></g><defs><clipPath id="clip0_3789_1143"><rect width="65" height="65" fill="white"></rect></clipPath></defs></svg>