<svg xmlns="http://www.w3.org/2000/svg" width="65" height="65" viewBox="0 0 65 65" fill="none"><path d="M42.6097 14.8333C37.0597 14.8333 32.5815 19.3104 32.5815 24.8615C32.5815 30.4118 37.0588 34.8897 42.6098 34.8898C48.1598 34.8898 52.6381 30.4128 52.6381 24.8615C52.638 19.3114 48.161 14.8333 42.6097 14.8333ZM42.6098 32.9855C38.1124 32.9855 34.4858 29.36 34.4858 24.8615C34.4858 20.3642 38.1111 16.7375 42.6098 16.7375C47.1075 16.7375 50.7336 20.3629 50.7338 24.8615C50.7339 29.3591 47.1085 32.9855 42.6098 32.9855Z" fill="#AA5858"></path><path d="M62.8011 39.5555L60.8262 37.5807C60.4542 37.2087 59.8514 37.2088 59.4796 37.5807C59.1077 37.9525 59.1077 38.5554 59.4797 38.9271L61.4546 40.902C62.2295 41.6773 62.2295 42.9316 61.4546 43.7062C60.6794 44.4811 59.4258 44.4813 58.6505 43.7062C56.9949 42.0506 52.4687 37.5244 50.9876 36.0431C52.0443 35.2503 52.9942 34.3017 53.793 33.2403L56.3378 35.785C56.7097 36.1569 57.3125 36.1569 57.6843 35.785C58.0562 35.4132 58.0562 34.8103 57.6843 34.4386L54.8521 31.6064C55.981 29.5645 56.5819 27.2594 56.5819 24.8616C56.5819 22.0434 55.7526 19.3529 54.2103 17.0677V8.55702C54.2103 6.91196 52.8719 5.57362 51.2269 5.57362H48.8224V2.9834C48.8224 1.33834 47.484 0 45.839 0H19.3021C18.7763 0 18.35 0.426309 18.35 0.952148C18.35 1.47799 18.7763 1.9043 19.3021 1.9043H45.8389C46.4339 1.9043 46.918 2.38837 46.918 2.9834V5.57362H9.43086C7.7858 5.57362 6.44746 6.91196 6.44746 8.55702V57.522H4.04297C3.44794 57.522 2.96387 57.0379 2.96387 56.4429V2.9834C2.96387 2.38837 3.44794 1.9043 4.04297 1.9043H14.8587C15.3846 1.9043 15.8109 1.47799 15.8109 0.952148C15.8109 0.426309 15.3846 0 14.8587 0H4.04297C2.39791 0 1.05957 1.33834 1.05957 2.9834V56.443C1.05957 58.088 2.39791 59.4264 4.04297 59.4264H6.44746V62.0166C6.44746 63.6617 7.7858 65 9.43086 65H51.2267C52.8718 65 54.2101 63.6617 54.2101 62.0166V41.9592L57.3039 45.0529C58.823 46.5719 61.2811 46.5722 62.8012 45.0529C64.3201 43.5337 64.3204 41.0752 62.8011 39.5555ZM34.5007 33.7973C31.9035 31.4377 30.5482 28.1845 30.5482 24.8616C30.5482 18.1893 35.9382 12.7998 42.6099 12.7998C49.2743 12.7998 54.6775 18.1846 54.6775 24.8616C54.6775 35.1656 42.2904 40.8851 34.5007 33.7973ZM52.3058 62.0166C52.3058 62.6116 51.8218 63.0957 51.2267 63.0957H9.43086C8.83583 63.0957 8.35176 62.6116 8.35176 62.0166V58.4742V8.55702C8.35176 7.96199 8.83583 7.47792 9.43086 7.47792H47.8701H51.2267C51.8218 7.47792 52.3058 7.96199 52.3058 8.55702V14.8017C49.7546 12.3401 46.3413 10.8899 42.6099 10.8899C30.5532 10.8899 24.1454 25.2634 32.2357 34.2206C34.4983 36.7255 37.6386 38.3787 41.106 38.7509C43.8446 39.0447 46.765 38.5235 49.3515 37.1003L52.306 40.0547V62.0166H52.3058Z" fill="#AA5858"></path><path d="M13.1548 15.2856H24.9409C25.4667 15.2856 25.893 14.8593 25.893 14.3335C25.893 13.8077 25.4667 13.3813 24.9409 13.3813H13.1548C12.6289 13.3813 12.2026 13.8077 12.2026 14.3335C12.2026 14.8593 12.6289 15.2856 13.1548 15.2856Z" fill="#AA5858"></path><path d="M13.1548 20.6836H24.9409C25.4667 20.6836 25.893 20.2573 25.893 19.7314C25.893 19.2056 25.4667 18.7793 24.9409 18.7793H13.1548C12.6289 18.7793 12.2026 19.2056 12.2026 19.7314C12.2026 20.2573 12.6289 20.6836 13.1548 20.6836Z" fill="#AA5858"></path><path d="M13.1548 26.0815H24.9409C25.4667 26.0815 25.893 25.6552 25.893 25.1294C25.893 24.6036 25.4667 24.1772 24.9409 24.1772H13.1548C12.6289 24.1772 12.2026 24.6036 12.2026 25.1294C12.2026 25.6552 12.6289 26.0815 13.1548 26.0815Z" fill="#AA5858"></path><path d="M13.1548 31.8394H24.9409C25.4667 31.8394 25.893 31.413 25.893 30.8872C25.893 30.3614 25.4667 29.9351 24.9409 29.9351H13.1548C12.6289 29.9351 12.2026 30.3614 12.2026 30.8872C12.2026 31.413 12.6289 31.8394 13.1548 31.8394Z" fill="#AA5858"></path><path d="M41.6381 58.492H31.5938L30.4488 55.9055C32.6166 53.914 33.978 51.0581 33.978 47.8893C33.978 46.3489 33.6545 44.8832 33.075 43.5538H42.2502C42.7761 43.5538 43.2023 43.1275 43.2023 42.6016C43.2023 42.0758 42.7761 41.6495 42.2502 41.6495H32.0045C30.0333 38.8419 26.7737 37.0017 23.0903 37.0017C17.0868 37.0017 12.2026 41.8859 12.2026 47.8893C12.2026 53.8928 17.0868 58.7771 23.0903 58.7771C25.2224 58.7771 27.2117 58.1586 28.8929 57.0952L30.1034 59.8297C30.2559 60.1742 30.5973 60.3964 30.9741 60.3964H41.6381C42.1641 60.3964 42.5903 59.9701 42.5903 59.4442C42.5903 58.9184 42.1641 58.492 41.6381 58.492ZM22.1384 47.8893V56.8226C17.631 56.3454 14.1072 52.5211 14.1072 47.8893C14.1072 42.9359 18.1371 38.906 23.0905 38.906C25.6215 38.906 27.9097 39.9597 29.5441 41.6495H28.0583C27.5325 41.6495 27.1062 42.0758 27.1062 42.6016C27.1062 43.1275 27.5325 43.5538 28.0583 43.5538H30.9542C31.5207 44.577 31.8951 45.7207 32.0238 46.9372H23.0905C22.5646 46.9372 22.1384 47.3635 22.1384 47.8893ZM24.0427 56.8226V48.8415H32.0238C31.8117 50.8449 30.9371 52.6531 29.6253 54.0449L28.9288 52.4717C28.7159 51.9908 28.1534 51.7736 27.6728 51.9865C27.1919 52.1993 26.9746 52.7617 27.1875 53.2426L28.1125 55.3321C26.9259 56.1353 25.5389 56.6642 24.0427 56.8226Z" fill="#AA5858"></path><path d="M48.3241 46.9373H42.25C41.724 46.9373 41.2979 47.3636 41.2979 47.8894C41.2979 48.4152 41.724 48.8416 42.25 48.8416H48.3241C48.85 48.8416 49.2762 48.4152 49.2762 47.8894C49.2762 47.3636 48.85 46.9373 48.3241 46.9373Z" fill="#AA5858"></path><path d="M48.3241 51.6155H42.25C41.724 51.6155 41.2979 52.0418 41.2979 52.5676C41.2979 53.0935 41.724 53.5198 42.25 53.5198H48.3241C48.85 53.5198 49.2762 53.0935 49.2762 52.5676C49.2762 52.0418 48.85 51.6155 48.3241 51.6155Z" fill="#AA5858"></path><path d="M45.8995 21.2008L40.6543 26.2485L39.5137 23.9435C39.2805 23.4722 38.7095 23.2792 38.2381 23.5124C37.7667 23.7456 37.5738 24.3168 37.807 24.788L39.5242 28.2584C39.8083 28.833 40.5727 28.97 41.0377 28.5222L47.2198 22.573C47.5988 22.2082 47.6103 21.6056 47.2457 21.2266C46.881 20.8478 46.2783 20.8364 45.8995 21.2008Z" fill="#AA5858"></path></svg>