<svg xmlns="http://www.w3.org/2000/svg" width="30" height="30" viewBox="0 0 30 30" fill="none"><path d="M18.2207 11.5311V16.2927C18.2207 16.3495 18.1981 16.4041 18.1579 16.4442C18.1178 16.4844 18.0632 16.507 18.0064 16.507H17.2436C17.2098 16.5068 17.1765 16.4989 17.1462 16.4838C17.1159 16.4688 17.0895 16.447 17.0689 16.4202L14.8864 13.4737V16.2991C14.8864 16.356 14.8638 16.4105 14.8237 16.4507C14.7835 16.4909 14.729 16.5134 14.6721 16.5134H13.9093C13.8524 16.5134 13.7979 16.4909 13.7578 16.4507C13.7176 16.4105 13.695 16.356 13.695 16.2991V11.5386C13.695 11.4818 13.7176 11.4273 13.7578 11.3871C13.7979 11.3469 13.8524 11.3243 13.9093 11.3243H14.6657C14.7002 11.3238 14.7342 11.3321 14.7646 11.3484C14.795 11.3647 14.8207 11.3885 14.8393 11.4175L17.0228 14.3641V11.5386C17.0228 11.4818 17.0454 11.4273 17.0856 11.3871C17.1258 11.3469 17.1803 11.3243 17.2371 11.3243H18C18.0281 11.3235 18.0562 11.3282 18.0825 11.3382C18.1088 11.3481 18.1329 11.3632 18.1534 11.3825C18.1739 11.4018 18.1904 11.425 18.202 11.4507C18.2135 11.4763 18.2199 11.503 18.2207 11.5311ZM12.7296 11.3168H11.9668C11.9099 11.3168 11.8554 11.3394 11.8153 11.3796C11.7751 11.4198 11.7525 11.4743 11.7525 11.5311V16.2927C11.7525 16.3495 11.7751 16.4041 11.8153 16.4442C11.8554 16.4844 11.9099 16.507 11.9668 16.507H12.7296C12.7865 16.507 12.841 16.4844 12.8812 16.4442C12.9213 16.4041 12.9439 16.3495 12.9439 16.2927V11.5311C12.9439 11.4743 12.9213 11.4198 12.8812 11.3796C12.841 11.3394 12.7865 11.3168 12.7296 11.3168ZM10.8878 15.308H8.80607V11.5311C8.80607 11.4743 8.78349 11.4198 8.7433 11.3796C8.70312 11.3394 8.64861 11.3168 8.59178 11.3168H7.82785C7.77102 11.3168 7.71652 11.3394 7.67633 11.3796C7.63614 11.4198 7.61357 11.4743 7.61357 11.5311V16.2927C7.61271 16.3202 7.61761 16.3475 7.62794 16.373C7.63827 16.3984 7.65381 16.4215 7.67357 16.4406C7.71365 16.4776 7.76578 16.499 7.82035 16.5006H10.8804C10.9372 16.5006 10.9917 16.478 11.0319 16.4378C11.0721 16.3976 11.0946 16.3431 11.0946 16.2863V15.5234C11.0947 15.4677 11.073 15.4141 11.0342 15.3741C10.9954 15.3341 10.9425 15.3108 10.8868 15.3091L10.8878 15.308ZM22.2386 11.3168H19.1786C19.1217 11.3168 19.0672 11.3394 19.027 11.3796C18.9868 11.4198 18.9643 11.4743 18.9643 11.5311V16.2927C18.9643 16.3495 18.9868 16.4041 19.027 16.4442C19.0672 16.4844 19.1217 16.507 19.1786 16.507H22.2386C22.2954 16.507 22.3499 16.4844 22.3901 16.4442C22.4303 16.4041 22.4528 16.3495 22.4528 16.2927V15.5298C22.4528 15.473 22.4303 15.4185 22.3901 15.3783C22.3499 15.3381 22.2954 15.3155 22.2386 15.3155H20.1557V14.5119H22.2386C22.2954 14.5119 22.3499 14.4894 22.3901 14.4492C22.4303 14.409 22.4528 14.3545 22.4528 14.2976V13.5273C22.4528 13.4704 22.4303 13.4159 22.3901 13.3757C22.3499 13.3355 22.2954 13.313 22.2386 13.313H20.1557V12.5094H22.2386C22.2954 12.5094 22.3499 12.4868 22.3901 12.4466C22.4303 12.4064 22.4528 12.3519 22.4528 12.2951V11.5322C22.4502 11.4762 22.4268 11.4232 22.3872 11.3836C22.3475 11.3439 22.2945 11.3194 22.2386 11.3168ZM30 5.47091V24.5762C29.9918 26.0203 29.4112 27.4022 28.3857 28.419C27.3602 29.4357 25.9733 30.0043 24.5293 30H5.42357C3.98049 29.9892 2.60026 29.408 1.58414 28.3832C0.56803 27.3585 -0.0014521 25.9733 2.78078e-06 24.5301V5.42376C0.0107558 3.98045 0.59208 2.6 1.61706 1.58382C2.64204 0.567643 4.02741 -0.00173416 5.47071 3.96778e-06H24.5753C26.0196 0.00794123 27.4017 0.588354 28.4186 1.61395C29.4356 2.63955 30.0043 4.0266 30 5.47091ZM25.875 13.6805C25.875 8.79245 20.9732 4.8141 14.9528 4.8141C8.9325 4.8141 4.03071 8.79245 4.03071 13.6816C4.03071 18.0606 7.91464 21.7304 13.1646 22.4269C14.4439 22.7012 14.2961 23.1705 14.0078 24.8912C13.9607 25.1655 13.7871 25.9691 14.9518 25.4805C18.1181 23.8139 21.0126 21.6754 23.5361 19.1385C24.9945 17.6921 25.8333 15.7352 25.875 13.6816V13.6805Z" fill="#F5F5F5"></path></svg>