<svg xmlns="http://www.w3.org/2000/svg" width="30" height="30" viewBox="0 0 30 30" fill="none"><path d="M26.7857 0H3.21429C2.3618 0 1.54424 0.338647 0.941442 0.941443C0.338647 1.54424 0 2.3618 0 3.21429L0 26.7857C0 27.6382 0.338647 28.4558 0.941442 29.0586C1.54424 29.6614 2.3618 30 3.21429 30H12.405V19.8011H8.18679V15H12.405V11.3411C12.405 7.17964 14.8832 4.88036 18.6771 4.88036C19.9226 4.89676 21.1652 5.00419 22.395 5.20179V9.28929H20.3014C19.9446 9.24187 19.5816 9.27536 19.2394 9.38725C18.8972 9.49915 18.5846 9.68659 18.3247 9.9357C18.0648 10.1848 17.8643 10.4892 17.7379 10.8263C17.6116 11.1634 17.5628 11.5246 17.595 11.8832V15H22.2021L21.4661 19.8011H17.595V30H26.7857C27.6382 30 28.4558 29.6614 29.0586 29.0586C29.6614 28.4558 30 27.6382 30 26.7857V3.21429C30 2.3618 29.6614 1.54424 29.0586 0.941443C28.4558 0.338647 27.6382 0 26.7857 0Z" fill="#F5F5F5"></path></svg>